<?xml version="1.0" encoding="UTF-8"?>
<svg id="Livello_2" data-name="Livello 2" xmlns="http://www.w3.org/2000/svg" viewBox="0 0 437.28 126.65">
  <defs>
    <style>
      .cls-1 {
        fill: #fff;
      }
    </style>
  </defs>
  <g id="Livello_1-2" data-name="Livello 1">
    <path class="cls-1" d="M0,1.51c12.58,.94,22.23,7.7,27.95,18.02,8.04,14.52,14.17,30.1,21.1,45.24,3.06,6.68,5.57,13.67,9.25,19.98,6.15,10.54,13.58,10.77,19.76,.14,4.86-8.35,7.86-17.76,11.94-26.59,5.99-12.95,10.92-26.63,18.59-38.53,17.23-26.75,53.68-26.26,70.57,.82,7.3,11.69,12.25,24.86,18.11,37.43,4.28,9.17,7.72,18.79,12.6,27.61,5.09,9.21,12.55,9.62,17.92,.62,5.24-8.78,8.42-18.78,12.79-28.11,6.14-13.1,11.24-26.93,19.1-38.94,17.01-26.01,53.55-25.47,69.91,.97,7.87,12.73,13.14,27.07,19.51,40.71,3.86,8.27,7.03,16.92,11.52,24.83,5.19,9.13,12.3,9.38,17.99,.5,4.24-6.61,6.81-14.28,10.15-21.47,7.02-15.1,13.38-30.56,21.32-45.16,5.84-10.73,15.98-16.45,27.12-18.06,0,8.36-.17,16.61,.05,24.85,.18,6.84-1.14,12.86-4.26,19.26-6.43,13.18-10.84,27.33-16.93,40.7-3.84,8.44-8.48,16.73-14.03,24.12-16.1,21.46-48.56,21.11-65.21-.06-9.28-11.81-14.52-25.5-19.87-39.21-3.1-7.96-6.26-15.91-9.4-23.86-.44-1.11-.82-2.27-1.44-3.27-2.84-4.57-5.53-9.79-11.71-9.93-6.1-.13-9.02,4.81-11.08,9.54-6.12,14.02-11.57,28.33-17.8,42.29-3.3,7.4-7.24,14.61-11.66,21.41-16.82,25.84-54.96,26.42-72.18-3.46-6.61-11.47-11.3-24.08-16.63-36.27-3.03-6.92-5.49-14.08-8.42-21.04-1.07-2.54-2.51-5.01-4.24-7.16-6.11-7.6-12.84-7.68-17.63,.79-5.06,8.95-8.52,18.78-12.89,28.13-6.13,13.1-11.34,26.81-18.96,39-16.75,26.8-56.45,26.14-73.03-4.93-7.64-14.31-12.67-30-19.33-44.86C7.61,50.99,3.55,44.91,0,38.6c0-12.36,0-24.72,0-37.08Z"/>
  </g>
</svg>