<?xml version="1.0" encoding="UTF-8"?>
<svg id="Livello_2" data-name="Livello 2" xmlns="http://www.w3.org/2000/svg" viewBox="0 0 444.14 85.48">
  <defs>
    <style>
      .cls-1 {
        fill: #fff;
      }
    </style>
  </defs>
  <g id="Livello_1-2" data-name="Livello 1">
    <g>
      <path class="cls-1" d="M25.56,21c4.17,.83,8.34,1.56,12.51,2.2v42.2c0,10.48-6.75,16.64-19.62,13.66C6.93,76.32,0,67.98,0,56.27v-5.88c3.78,1.15,7.56,2.2,11.34,3.18v5.28c0,5.79,1.98,9.2,7.11,10.41,5.76,1.33,7.11-.96,7.11-7.29V21Z"/>
      <path class="cls-1" d="M85.5,85.35c-1.26-4.04-2.52-8.09-3.78-12.13-7.35-.24-14.7-.69-22.05-1.39-1.41,3.86-2.82,7.7-4.23,11.53-4.41-.48-8.82-1.05-13.23-1.72,7.11-18.2,14.22-36.72,21.33-55.54,4.83,.36,9.66,.62,14.49,.78,7.02,19.64,14.04,39.16,21.06,58.6-4.53,.03-9.06,0-13.59-.13Zm-14.85-45.75s-.06,0-.09,0c-2.55,7.56-5.1,15.08-7.65,22.56,5.07,.42,10.14,.73,15.21,.93-2.49-7.82-4.98-15.64-7.47-23.49Z"/>
      <path class="cls-1" d="M153.09,82.3V41.86c-3.72,13.89-7.44,27.72-11.16,41.49-4.14,.36-8.28,.68-12.42,.96-3.69-13.12-7.38-26.24-11.07-39.38v40.01c-3.87,.18-7.74,.32-11.61,.41V26.84c6.12-.21,12.24-.54,18.36-.97,3.6,14.1,7.2,28.2,10.8,42.29,3.6-14.67,7.2-29.4,10.8-44.19,6-.63,12-1.33,18-2.08v59.14c-3.9,.45-7.8,.88-11.7,1.27Z"/>
      <path class="cls-1" d="M220.59,73.49V32.55c-3.72,14.21-7.44,28.4-11.16,42.55-4.14,.6-8.28,1.19-12.42,1.76-3.69-13.01-7.38-26.01-11.07-38.99v40.5c-3.87,.52-7.74,1.02-11.61,1.5V20.64c6.12-.83,12.24-1.71,18.36-2.61,3.6,14,7.2,28.01,10.8,42.05,3.6-15.08,7.2-30.2,10.8-45.35,6-.93,12-1.88,18-2.81v59.87c-3.9,.56-7.8,1.13-11.7,1.7Z"/>
      <path class="cls-1" d="M288.09,64.55c0-13.81,0-27.62,0-41.44-3.72,14.23-7.44,28.46-11.16,42.68-4.14,.49-8.28,1-12.42,1.54-3.69-13.22-7.38-26.39-11.07-39.53,0,13.67,0,27.33,0,41-3.87,.53-7.74,1.07-11.61,1.62V10.45c6.12-.93,12.24-1.85,18.36-2.72,3.6,14.2,7.2,28.43,10.8,42.72,3.6-15.19,7.2-30.4,10.8-45.61,6-.74,12-1.42,18-2.03V63.4c-3.9,.35-7.8,.73-11.7,1.15Z"/>
      <path class="cls-1" d="M309.33,62.61V1.91c4.17-.36,8.34-.68,12.51-.95V61.79c-4.17,.23-8.34,.5-12.51,.81Z"/>
      <path class="cls-1" d="M368.28,61.56c-8.52-14.16-17.04-27.97-25.56-41.48V61.09c-3.87,.05-7.74,.14-11.61,.28V.44c4.41-.21,8.82-.36,13.23-.44,7.92,12.94,15.84,26.15,23.76,39.66,0-13.15,0-26.29,0-39.44,3.9,.15,7.8,.37,11.7,.65V62.33c-3.84-.32-7.68-.57-11.52-.77Z"/>
      <path class="cls-1" d="M433.79,71.5c-.09-2.08-.18-4.16-.27-6.24-2.88,4.47-9.72,5.79-17.91,4.17-16.56-3.26-27.09-19.94-27.09-37.14,0-18.04,10.08-32.09,29.43-28.45,14.22,2.75,25.2,14.92,26.1,27.63-4.2-1.26-8.4-2.41-12.6-3.45-.63-5.95-6.66-12.12-13.5-13.46-9.99-1.95-16.65,5.22-16.65,19.87,0,10.17,4.95,22.23,16.56,24.56,8.19,1.67,14.58-3.06,14.58-10.82-4.41-1.13-8.82-2.15-13.23-3.06,0-3.45,0-6.9,0-10.34,8.31,1.71,16.62,3.79,24.93,6.29v33.41c-3.45-1.06-6.9-2.05-10.35-2.96Z"/>
    </g>
  </g>
</svg>