<?xml version="1.0" encoding="UTF-8"?>
<svg id="Livello_1" data-name="Livello 1" xmlns="http://www.w3.org/2000/svg" viewBox="0 0 325.06 346.55">
  <defs>
    <style>
      .cls-1 {
        fill: #fff;
      }
    </style>
  </defs>
  <path class="cls-1" d="M114.83,171.93c0,48.34,.03,96.67-.02,145.01-.01,12.84-9.5,20.29-21.51,17.2-7.67-1.97-11.41-6.69-11.34-14.71,.13-14.6,.02-29.2,.02-43.8,.01-83.37,.04-166.75,.01-250.12,0-6.46,.62-12.48,7.53-15.42,7.07-3.01,14.49-3.53,19.86,2.41,3.04,3.36,5.16,8.87,5.19,13.44,.36,48.66,.23,97.32,.23,145.98h.03Z"/>
  <path class="cls-1" d="M245.36,171.59c.01,47.97,.03,95.95,0,143.92,0,13.99-4.46,19.21-15.94,19.01-10.64-.18-16.91-7.18-16.92-19.16-.01-95.95,0-191.89,.04-287.84,0-11.81,7.61-19.84,17.99-19.34,9.76,.47,14.71,5.79,14.74,16.57,.1,41.49,.06,82.98,.07,124.47,0,7.46,0,14.91,.01,22.37Z"/>
  <path class="cls-1" d="M279.83,171.27c0-28.55-.06-57.1,.03-85.65,.03-11.35,3.27-14.14,15.71-14.18,12.57-.04,17.07,3.57,17.12,14.24,.28,56.44,.46,112.89,.73,169.33,.03,6,.38,13.09-6.88,14.18-7.59,1.13-15.71,.4-23.26-1.17-1.86-.39-3.31-7.21-3.34-11.1-.28-28.55-.15-57.1-.15-85.65h.04Z"/>
  <path class="cls-1" d="M147.34,170.32c0-28.19-.06-56.38,.03-84.57,.03-10.89,4.27-14.35,16.87-14.27,12.52,.07,15.89,2.85,15.91,14.01,.1,57.35,.13,114.7,.06,172.05-.01,11.48-2.5,13.32-16.15,13.31-13.75-.01-16.7-2.35-16.73-14.02-.08-28.84-.03-57.68-.03-86.51h.04Z"/>
  <path class="cls-1" d="M49.6,171.32c0,28.23,.05,56.45-.02,84.68-.03,11.62-4.3,15.39-17,15.42-12.61,.02-15.77-2.88-15.78-15.15-.04-56.45-.03-112.9,.03-169.36,.01-12.5,3.02-15.38,15.48-15.43,13.11-.05,17.22,3.69,17.24,16.14,.06,27.9,.02,55.8,.02,83.71h.04Z"/>
</svg>